<?xml version="1.0" encoding="utf-8"?>
<!-- Generator: Adobe Illustrator 17.0.0, SVG Export Plug-In . SVG Version: 6.00 Build 0)  -->
<!DOCTYPE svg PUBLIC "-//W3C//DTD SVG 1.1//EN" "http://www.w3.org/Graphics/SVG/1.1/DTD/svg11.dtd">
<svg version="1.1" id="Layer_1" xmlns="http://www.w3.org/2000/svg" xmlns:xlink="http://www.w3.org/1999/xlink" x="0px" y="0px"
	 width="442.845px" height="64.833px" viewBox="0 0 442.845 64.833" enable-background="new 0 0 442.845 64.833"
	 xml:space="preserve">
<g>
	<g>
		<path fill="#5B5B5B" d="M56.425,64.618h-1.217V49.944h-5.613v-1.031h12.443v1.031h-5.613V64.618z"/>
		<path fill="#5B5B5B" d="M88.079,64.618h-9.441V48.913h9.441v1.01h-8.236v5.94h7.775v1.01h-7.775v6.735h8.236V64.618z"/>
		<path fill="#5B5B5B" d="M113.399,49.676c-2.167,0-3.872,0.63-5.116,1.891c-1.245,1.261-1.867,2.986-1.867,5.178
			c0,2.241,0.587,3.981,1.761,5.221s2.852,1.858,5.034,1.858c1.449,0,2.781-0.168,3.994-0.505v0.967
			c-1.143,0.365-2.568,0.548-4.278,0.548c-2.426,0-4.336-0.713-5.731-2.138c-1.394-1.425-2.091-3.416-2.091-5.973
			c0-1.597,0.333-3.004,0.999-4.222c0.666-1.218,1.623-2.157,2.871-2.82c1.249-0.662,2.7-0.993,4.354-0.993
			c1.686,0,3.194,0.286,4.526,0.859l-0.485,0.988C116.109,49.962,114.786,49.676,113.399,49.676z"/>
		<path fill="#5B5B5B" d="M147.606,64.618h-1.217v-7.724h-10.091v7.724h-1.206V48.913h1.206v6.972h10.091v-6.972h1.217V64.618z"/>
		<path fill="#5B5B5B" d="M179.095,64.618h-1.217l-10.233-13.943h-0.095c0.095,1.661,0.142,2.915,0.142,3.76v10.184h-1.157V48.913
			h1.205l10.221,13.922h0.071c-0.071-1.289-0.106-2.514-0.106-3.674V48.913h1.17V64.618z"/>
		<path fill="#5B5B5B" d="M212.546,56.744c0,2.492-0.686,4.464-2.057,5.913c-1.37,1.451-3.261,2.176-5.672,2.176
			c-2.402,0-4.289-0.725-5.66-2.176c-1.37-1.449-2.056-3.428-2.056-5.935c0-2.499,0.691-4.467,2.073-5.903
			c1.383-1.436,3.271-2.153,5.666-2.153c2.411,0,4.298,0.722,5.66,2.165C211.864,52.273,212.546,54.245,212.546,56.744z
			 M198.413,56.744c0,2.249,0.552,3.987,1.654,5.216c1.103,1.228,2.687,1.842,4.75,1.842c2.08,0,3.669-0.608,4.769-1.826
			c1.099-1.218,1.648-2.961,1.648-5.231c0-2.263-0.55-3.998-1.648-5.204c-1.1-1.207-2.681-1.811-4.745-1.811
			c-2.056,0-3.641,0.608-4.756,1.826C198.971,52.773,198.413,54.503,198.413,56.744z"/>
		<path fill="#5B5B5B" d="M230.552,64.618V48.913h1.205v14.674h8.236v1.031H230.552z"/>
		<path fill="#5B5B5B" d="M271.529,56.744c0,2.492-0.686,4.464-2.057,5.913c-1.369,1.451-3.26,2.176-5.672,2.176
			c-2.402,0-4.289-0.725-5.66-2.176c-1.369-1.449-2.055-3.428-2.055-5.935c0-2.499,0.691-4.467,2.072-5.903
			c1.383-1.436,3.271-2.153,5.666-2.153c2.412,0,4.299,0.722,5.66,2.165C270.847,52.273,271.529,54.245,271.529,56.744z
			 M257.396,56.744c0,2.249,0.553,3.987,1.654,5.216c1.104,1.228,2.688,1.842,4.75,1.842c2.08,0,3.67-0.608,4.77-1.826
			c1.098-1.218,1.648-2.961,1.648-5.231c0-2.263-0.551-3.998-1.648-5.204c-1.1-1.207-2.682-1.811-4.746-1.811
			c-2.055,0-3.641,0.608-4.756,1.826C257.955,52.773,257.396,54.503,257.396,56.744z"/>
		<path fill="#5B5B5B" d="M296.33,56.701h6.369v7.165c-1.67,0.645-3.549,0.967-5.637,0.967c-2.727,0-4.814-0.7-6.27-2.1
			c-1.453-1.4-2.18-3.383-2.18-5.946c0-1.597,0.361-3.013,1.082-4.249c0.721-1.234,1.752-2.189,3.096-2.862
			c1.342-0.673,2.885-1.01,4.625-1.01c1.883,0,3.574,0.315,5.07,0.945l-0.484,0.988c-1.498-0.63-3.049-0.945-4.656-0.945
			c-2.277,0-4.082,0.64-5.418,1.917c-1.334,1.279-2.002,3.003-2.002,5.173c0,2.363,0.633,4.142,1.902,5.333
			c1.268,1.193,3.131,1.789,5.588,1.789c1.592,0,2.943-0.204,4.055-0.612v-5.521h-5.141V56.701z"/>
		<path fill="#5B5B5B" d="M321.072,64.618V48.913h1.205v15.705H321.072z"/>
		<path fill="#5B5B5B" d="M350.646,64.618h-9.441V48.913h9.441v1.01h-8.236v5.94h7.775v1.01h-7.775v6.735h8.236V64.618z"/>
		<path fill="#5B5B5B" d="M378.128,60.568c0,1.311-0.529,2.349-1.588,3.115c-1.061,0.767-2.469,1.149-4.225,1.149
			c-2.111,0-3.73-0.211-4.857-0.634v-1.096c1.246,0.479,2.832,0.72,4.762,0.72c1.418,0,2.543-0.295,3.375-0.887
			c0.83-0.59,1.246-1.365,1.246-2.325c0-0.595-0.139-1.087-0.414-1.478c-0.275-0.39-0.725-0.746-1.346-1.068
			c-0.623-0.322-1.537-0.67-2.742-1.042c-1.766-0.552-2.984-1.147-3.658-1.788c-0.672-0.642-1.01-1.495-1.01-2.562
			c0-1.175,0.506-2.133,1.52-2.873c1.012-0.742,2.312-1.112,3.904-1.112c1.623,0,3.146,0.279,4.574,0.838l-0.438,0.945
			c-1.434-0.544-2.805-0.816-4.113-0.816c-1.275,0-2.291,0.269-3.049,0.806c-0.756,0.537-1.133,1.268-1.133,2.191
			c0,0.58,0.115,1.057,0.348,1.429s0.613,0.707,1.141,1.005c0.527,0.297,1.434,0.653,2.717,1.068
			c1.348,0.423,2.359,0.832,3.037,1.23c0.678,0.396,1.172,0.848,1.482,1.354C377.974,59.241,378.128,59.852,378.128,60.568z"/>
	</g>
	<g>
		<path d="M44.076,26.057c1.641,0,2.99-0.301,4.053-0.904c1.06-0.604,1.893-1.34,2.496-2.209c0.603-0.867,1.014-1.82,1.23-2.857
			c0.217-1.037,0.326-1.99,0.326-2.859c0-0.867-0.109-1.82-0.326-2.859c-0.217-1.037-0.627-1.99-1.23-2.859
			c-0.604-0.867-1.436-1.604-2.496-2.207c-1.062-0.602-2.412-0.904-4.053-0.904h-29.24c-1.689,0-3.053,0.303-4.09,0.904
			c-1.037,0.603-1.858,1.34-2.459,2.207c-0.604,0.869-1.014,1.822-1.231,2.859c-0.219,1.039-0.326,1.992-0.326,2.859
			c0,0.869,0.108,1.822,0.326,2.859c0.217,1.037,0.627,1.99,1.231,2.857c0.601,0.869,1.422,1.605,2.459,2.209
			c1.037,0.604,2.4,0.904,4.09,0.904h14.91c0.965,0,1.785,0.338,2.461,1.014c0.676,0.676,1.014,1.494,1.014,2.459
			c0,0.965-0.338,1.785-1.014,2.461c-0.676,0.676-1.496,1.014-2.461,1.014H12.594c-1.98-0.096-3.742-0.639-5.285-1.627
			c-1.543-0.988-2.857-2.232-3.943-3.729s-1.92-3.16-2.498-4.994C0.289,20.822,0,19.012,0,17.226c0-1.832,0.301-3.678,0.904-5.537
			c0.602-1.857,1.482-3.547,2.641-5.066s2.559-2.762,4.199-3.727c1.641-0.965,3.498-1.449,5.572-1.449H46.32
			c1.977,0.098,3.738,0.643,5.283,1.631c1.543,0.988,2.857,2.23,3.943,3.726c1.086,1.496,1.918,3.16,2.496,4.994
			c0.578,1.834,0.869,3.643,0.869,5.428c0,1.834-0.303,3.68-0.904,5.537c-0.604,1.857-1.484,3.547-2.643,5.066
			c-1.158,1.52-2.557,2.762-4.197,3.727c-1.641,0.965-3.498,1.447-5.572,1.447h-1.52c-0.965,0-1.785-0.338-2.461-1.014
			c-0.676-0.676-1.014-1.496-1.014-2.461c0-0.965,0.338-1.783,1.014-2.459C42.291,26.394,43.111,26.057,44.076,26.057z"/>
		<path fill="#00768A" d="M32.424,20.121c0-1.254,0.434-2.316,1.303-3.186c0.867-0.867,1.93-1.303,3.184-1.303
			c1.254,0,2.316,0.436,3.186,1.303c0.867,0.869,1.303,1.932,1.303,3.186c0,1.254-0.436,2.316-1.303,3.184
			c-0.869,0.869-1.932,1.303-3.186,1.303c-1.254,0-2.316-0.434-3.184-1.303C32.857,22.438,32.424,21.375,32.424,20.121z"/>
		<path fill="#00768A" d="M32.424,38.968c0-1.254,0.434-2.316,1.303-3.185c0.867-0.867,1.93-1.303,3.184-1.303
			c1.254,0,2.316,0.436,3.186,1.303c0.867,0.869,1.303,1.932,1.303,3.185c0,1.254-0.436,2.317-1.303,3.185
			c-0.869,0.869-1.932,1.303-3.186,1.303c-1.254,0-2.316-0.434-3.184-1.303C32.857,41.285,32.424,40.222,32.424,38.968z"/>
		<path d="M81.844,20.086c0.217,1.037,0.627,1.99,1.23,2.857c0.602,0.869,1.422,1.605,2.459,2.209s2.4,0.904,4.09,0.904h28.807
			c1.641,0,2.99-0.301,4.053-0.904c1.06-0.604,1.893-1.34,2.496-2.209c0.603-0.867,1.014-1.82,1.23-2.857
			c0.217-1.037,0.326-1.99,0.326-2.859V4.364c0-0.965,0.338-1.785,1.014-2.461s1.496-1.014,2.461-1.014
			c0.965,0,1.783,0.338,2.459,1.014c0.676,0.676,1.014,1.496,1.014,2.461v12.862c0,1.834-0.303,3.68-0.904,5.537
			c-0.604,1.857-1.484,3.547-2.643,5.066c-1.158,1.52-2.557,2.762-4.197,3.727c-1.641,0.965-3.498,1.447-5.572,1.447H87.164
			c-1.98-0.096-3.742-0.639-5.285-1.627c-1.543-0.988-2.857-2.232-3.943-3.729c-1.086-1.496-1.92-3.16-2.498-4.994
			c-0.578-1.832-0.867-3.642-0.867-5.428V4.364c0-0.965,0.336-1.785,1.012-2.461c0.676-0.676,1.496-1.014,2.461-1.014
			c0.965,0,1.785,0.338,2.461,1.014c0.676,0.676,1.014,1.496,1.014,2.461v12.862C81.518,18.096,81.625,19.049,81.844,20.086z"/>
		<path d="M153.485,31.701c-0.725,0.869-1.617,1.303-2.68,1.303c-0.965,0-1.785-0.338-2.461-1.014
			c-0.676-0.676-1.012-1.496-1.012-2.461c0-0.867,0.24-1.566,0.723-2.098l17.588-23.668c0.82-1.109,1.904-2.014,3.256-2.713
			C170.25,0.352,171.697,0,173.242,0c1.447,0,2.822,0.314,4.125,0.941c1.303,0.629,2.365,1.496,3.186,2.605l17.586,23.521
			c0.289,0.34,0.529,0.713,0.723,1.123c0.193,0.41,0.291,0.857,0.291,1.338c0,0.965-0.338,1.785-1.014,2.461
			c-0.676,0.676-1.496,1.014-2.461,1.014c-1.158,0-2.074-0.457-2.75-1.375l-16.863-22.51c-0.338-0.385-0.76-0.807-1.268-1.266
			c-0.508-0.457-1.025-0.688-1.555-0.688c-0.531,0-1.051,0.23-1.557,0.688c-0.508,0.459-0.904,0.881-1.193,1.266L153.485,31.701z"/>
		<path fill="#00768A" d="M168.754,25.188c0-1.254,0.434-2.316,1.303-3.186c0.867-0.867,1.93-1.303,3.186-1.303
			c1.254,0,2.314,0.435,3.184,1.303c0.867,0.869,1.303,1.932,1.303,3.186c0,1.254-0.436,2.316-1.303,3.183
			c-0.869,0.869-1.93,1.303-3.184,1.303c-1.256,0-2.318-0.434-3.186-1.303C169.187,27.504,168.754,26.441,168.754,25.188z"/>
		<path d="M295.386,32.537c-0.676,0.676-1.496,1.014-2.461,1.014c-0.965,0-1.785-0.338-2.461-1.014
			c-0.676-0.676-1.012-1.496-1.012-2.461V5.469c0-0.965,0.336-1.785,1.012-2.461c0.676-0.676,1.496-1.014,2.461-1.014
			c0.965,0,1.785,0.338,2.461,1.014c0.676,0.676,1.014,1.496,1.014,2.461v24.607C296.4,31.041,296.062,31.861,295.386,32.537z"/>
		<path d="M295.386,31.441c-0.676,0.676-1.496,1.014-2.461,1.014c-0.965,0-1.785-0.338-2.461-1.014
			c-0.676-0.676-1.012-1.496-1.012-2.461V4.373c0-0.965,0.336-1.785,1.012-2.461c0.676-0.676,1.496-1.014,2.461-1.014
			c0.965,0,1.785,0.338,2.461,1.014c0.676,0.676,1.014,1.496,1.014,2.461V28.98C296.4,29.945,296.062,30.766,295.386,31.441z"/>
		<path d="M370.953,17.226c0,1.834-0.303,3.68-0.904,5.537c-0.603,1.857-1.484,3.547-2.643,5.066
			c-1.158,1.52-2.557,2.762-4.197,3.727c-1.641,0.965-3.498,1.447-5.572,1.447h-33.002c-1.98-0.096-3.742-0.639-5.285-1.627
			c-1.543-0.988-2.857-2.232-3.943-3.729c-1.086-1.496-1.92-3.16-2.498-4.994c-0.578-1.832-0.867-3.642-0.867-5.428
			c0-1.832,0.301-3.678,0.904-5.537c0.602-1.857,1.482-3.547,2.641-5.066s2.559-2.762,4.199-3.727
			c1.641-0.965,3.498-1.449,5.572-1.449h33.004c1.977,0.098,3.738,0.643,5.283,1.631c1.543,0.988,2.857,2.23,3.943,3.726
			c1.086,1.496,1.918,3.16,2.496,4.994C370.662,13.633,370.953,15.441,370.953,17.226z M360.169,25.152
			c1.061-0.604,1.893-1.34,2.496-2.209c0.604-0.867,1.014-1.82,1.23-2.857s0.326-1.99,0.326-2.859c0-0.867-0.109-1.82-0.326-2.859
			c-0.217-1.037-0.627-1.99-1.23-2.859c-0.603-0.867-1.435-1.604-2.496-2.207c-1.062-0.602-2.412-0.904-4.053-0.904h-29.24
			c-1.689,0-3.053,0.303-4.09,0.904c-1.037,0.603-1.857,1.34-2.459,2.207c-0.603,0.869-1.014,1.822-1.23,2.859
			c-0.219,1.039-0.326,1.992-0.326,2.859c0,0.869,0.107,1.822,0.326,2.859c0.217,1.037,0.627,1.99,1.23,2.857
			c0.602,0.869,1.422,1.605,2.459,2.209s2.4,0.904,4.09,0.904h29.24C357.757,26.057,359.107,25.756,360.169,25.152z"/>
		<path d="M436.912,1.903c0.676-0.676,1.496-1.014,2.461-1.014c0.965,0,1.783,0.338,2.459,1.014s1.014,1.496,1.014,2.461v22.193
			c0,1.98-0.664,3.645-1.99,4.996c-1.328,1.352-2.981,2.025-4.957,2.025c-0.676,0-1.34-0.096-1.99-0.289
			c-0.652-0.193-1.242-0.459-1.773-0.797l-33.148-21.398c-0.918-0.529-1.678-0.951-2.279-1.266
			c-0.603-0.313-1.098-0.471-1.484-0.471c-0.723,0-1.182,0.459-1.375,1.375c-0.193,0.918-0.289,2.244-0.289,3.981v15.391
			c0,0.965-0.338,1.785-1.014,2.461c-0.676,0.676-1.496,1.014-2.461,1.014c-0.965,0-1.785-0.338-2.461-1.014
			c-0.676-0.676-1.012-1.496-1.012-2.461V7.911c0-1.977,0.662-3.643,1.99-4.994c1.326-1.351,2.979-2.027,4.957-2.027
			c0.676,0,1.338,0.098,1.99,0.291c0.65,0.193,1.242,0.459,1.773,0.795l33.148,21.398c0.916,0.531,1.676,0.955,2.279,1.268
			c0.602,0.313,1.098,0.469,1.484,0.469c0.723,0,1.18-0.457,1.373-1.375c0.193-0.916,0.291-2.242,0.291-3.981V4.364
			C435.898,3.399,436.236,2.579,436.912,1.903z"/>
		<g>
			<path d="M258.956,26.057c1.641,0,2.99-0.301,4.053-0.904c1.061-0.604,1.893-1.34,2.496-2.209c0.604-0.867,1.014-1.82,1.23-2.857
				c0.217-1.037,0.326-1.99,0.326-2.859c0-0.867-0.109-1.82-0.326-2.859c-0.217-1.037-0.627-1.99-1.23-2.859
				c-0.603-0.867-1.435-1.604-2.496-2.207c-1.062-0.602-2.412-0.904-4.053-0.904h-40.675c-0.965,0-1.785-0.338-2.461-1.014
				c-0.676-0.676-1.012-1.496-1.012-2.461c0-0.965,0.336-1.785,1.012-2.461c0.676-0.676,1.496-1.014,2.461-1.014h42.195
				c2.074,0,3.932,0.484,5.572,1.449c1.641,0.965,3.039,2.207,4.197,3.727c1.158,1.52,2.039,3.209,2.643,5.066
				c0.602,1.859,0.904,3.705,0.904,5.537c0,1.785-0.291,3.596-0.869,5.428c-0.578,1.834-1.41,3.498-2.496,4.994
				c-1.086,1.496-2.4,2.74-3.943,3.729c-1.545,0.988-3.307,1.531-5.283,1.627h-42.919c-0.965,0-1.785-0.338-2.461-1.014
				c-0.676-0.676-1.012-1.496-1.012-2.461V17.226c0-0.965,0.336-1.785,1.012-2.461c0.676-0.676,1.496-1.014,2.461-1.014
				c0.965,0,1.785,0.338,2.461,1.014c0.676,0.676,1.014,1.496,1.014,2.461v8.83H258.956z"/>
		</g>
	</g>
</g>
</svg>
