<?xml version="1.0" encoding="utf-8"?>
<!-- Generator: Adobe Illustrator 17.0.0, SVG Export Plug-In . SVG Version: 6.00 Build 0)  -->
<!DOCTYPE svg PUBLIC "-//W3C//DTD SVG 1.1//EN" "http://www.w3.org/Graphics/SVG/1.1/DTD/svg11.dtd">
<svg version="1.1" id="Layer_1" xmlns="http://www.w3.org/2000/svg" xmlns:xlink="http://www.w3.org/1999/xlink" x="0px" y="0px"
	 width="500px" height="80px" viewBox="0 0 500 80" enable-background="new 0 0 500 80" xml:space="preserve">
<g>
	<g>
		<path fill="#5B5B5B" d="M84.737,71.892H83.52V57.218h-5.613v-1.031H90.35v1.031h-5.613V71.892z"/>
		<path fill="#5B5B5B" d="M116.391,71.892h-9.441V56.187h9.441v1.01h-8.236v5.94h7.775v1.01h-7.775v6.735h8.236V71.892z"/>
		<path fill="#5B5B5B" d="M141.711,56.949c-2.167,0-3.872,0.63-5.116,1.891c-1.245,1.261-1.867,2.986-1.867,5.178
			c0,2.241,0.587,3.981,1.761,5.221s2.852,1.858,5.034,1.858c1.449,0,2.781-0.168,3.994-0.505v0.967
			c-1.143,0.365-2.568,0.548-4.278,0.548c-2.426,0-4.336-0.713-5.731-2.138c-1.394-1.425-2.091-3.416-2.091-5.973
			c0-1.597,0.333-3.004,0.999-4.222c0.666-1.218,1.623-2.157,2.871-2.82c1.249-0.662,2.7-0.993,4.354-0.993
			c1.686,0,3.194,0.286,4.526,0.859l-0.485,0.988C144.421,57.235,143.098,56.949,141.711,56.949z"/>
		<path fill="#5B5B5B" d="M175.918,71.892h-1.217v-7.724H164.61v7.724h-1.206V56.187h1.206v6.972h10.091v-6.972h1.217V71.892z"/>
		<path fill="#5B5B5B" d="M207.407,71.892h-1.217l-10.233-13.943h-0.095c0.095,1.661,0.142,2.915,0.142,3.76v10.184h-1.157V56.187
			h1.205l10.221,13.922h0.071c-0.071-1.289-0.106-2.514-0.106-3.674V56.187h1.17V71.892z"/>
		<path fill="#5B5B5B" d="M240.858,64.018c0,2.492-0.686,4.464-2.057,5.913c-1.37,1.451-3.261,2.176-5.672,2.176
			c-2.402,0-4.289-0.725-5.66-2.176c-1.37-1.449-2.056-3.428-2.056-5.935c0-2.499,0.691-4.467,2.073-5.903
			c1.383-1.436,3.271-2.153,5.666-2.153c2.411,0,4.298,0.722,5.66,2.165C240.176,59.547,240.858,61.519,240.858,64.018z
			 M226.725,64.018c0,2.249,0.552,3.987,1.654,5.216c1.103,1.228,2.687,1.842,4.75,1.842c2.08,0,3.669-0.608,4.769-1.826
			c1.099-1.218,1.648-2.961,1.648-5.231c0-2.263-0.55-3.998-1.648-5.204c-1.1-1.207-2.681-1.811-4.745-1.811
			c-2.056,0-3.641,0.608-4.756,1.826C227.283,60.047,226.725,61.776,226.725,64.018z"/>
		<path fill="#5B5B5B" d="M258.863,71.892V56.187h1.205V70.86h8.236v1.031H258.863z"/>
		<path fill="#5B5B5B" d="M299.841,64.018c0,2.492-0.686,4.464-2.057,5.913c-1.37,1.451-3.261,2.176-5.672,2.176
			c-2.402,0-4.289-0.725-5.66-2.176c-1.37-1.449-2.056-3.428-2.056-5.935c0-2.499,0.691-4.467,2.073-5.903
			c1.383-1.436,3.271-2.153,5.666-2.153c2.411,0,4.298,0.722,5.66,2.165C299.159,59.547,299.841,61.519,299.841,64.018z
			 M285.708,64.018c0,2.249,0.552,3.987,1.654,5.216c1.103,1.228,2.687,1.842,4.75,1.842c2.08,0,3.669-0.608,4.769-1.826
			c1.099-1.218,1.648-2.961,1.648-5.231c0-2.263-0.55-3.998-1.648-5.204c-1.1-1.207-2.681-1.811-4.745-1.811
			c-2.056,0-3.641,0.608-4.756,1.826C286.266,60.047,285.708,61.776,285.708,64.018z"/>
		<path fill="#5B5B5B" d="M324.641,63.975h6.369v7.165c-1.67,0.645-3.549,0.967-5.637,0.967c-2.726,0-4.814-0.7-6.269-2.1
			c-1.453-1.4-2.18-3.383-2.18-5.946c0-1.597,0.36-3.013,1.081-4.249c0.721-1.234,1.753-2.189,3.096-2.862s2.886-1.01,4.626-1.01
			c1.883,0,3.573,0.315,5.069,0.945l-0.484,0.988c-1.497-0.63-3.049-0.945-4.655-0.945c-2.277,0-4.083,0.64-5.418,1.917
			c-1.335,1.279-2.003,3.003-2.003,5.173c0,2.363,0.634,4.142,1.902,5.333c1.269,1.193,3.132,1.789,5.589,1.789
			c1.592,0,2.942-0.204,4.054-0.612v-5.521h-5.141V63.975z"/>
		<path fill="#5B5B5B" d="M349.383,71.892V56.187h1.205v15.705H349.383z"/>
		<path fill="#5B5B5B" d="M378.958,71.892h-9.441V56.187h9.441v1.01h-8.236v5.94h7.775v1.01h-7.775v6.735h8.236V71.892z"/>
		<path fill="#5B5B5B" d="M406.44,67.842c0,1.311-0.529,2.349-1.589,3.115s-2.468,1.149-4.225,1.149
			c-2.111,0-3.729-0.211-4.856-0.634v-1.096c1.245,0.479,2.832,0.72,4.762,0.72c1.418,0,2.543-0.295,3.374-0.887
			c0.831-0.59,1.246-1.365,1.246-2.325c0-0.595-0.138-1.087-0.413-1.478c-0.275-0.39-0.725-0.746-1.347-1.068
			c-0.623-0.322-1.536-0.67-2.742-1.042c-1.765-0.552-2.983-1.147-3.657-1.788c-0.673-0.642-1.01-1.495-1.01-2.562
			c0-1.175,0.506-2.133,1.519-2.873c1.012-0.742,2.313-1.112,3.905-1.112c1.622,0,3.146,0.279,4.573,0.838l-0.438,0.945
			c-1.434-0.544-2.805-0.816-4.112-0.816c-1.276,0-2.292,0.269-3.049,0.806c-0.756,0.537-1.134,1.268-1.134,2.191
			c0,0.58,0.116,1.057,0.349,1.429c0.231,0.372,0.612,0.707,1.14,1.005c0.528,0.297,1.434,0.653,2.718,1.068
			c1.348,0.423,2.359,0.832,3.037,1.23c0.678,0.396,1.172,0.848,1.482,1.354C406.285,66.515,406.44,67.126,406.44,67.842z"/>
	</g>
	<g>
		<path d="M72.388,33.33c1.641,0,2.99-0.301,4.053-0.904c1.061-0.603,1.893-1.34,2.496-2.209c0.603-0.867,1.014-1.82,1.23-2.857
			c0.217-1.037,0.326-1.99,0.326-2.859c0-0.867-0.109-1.82-0.326-2.859c-0.217-1.037-0.627-1.99-1.23-2.859
			c-0.604-0.867-1.436-1.604-2.496-2.207c-1.062-0.601-2.412-0.904-4.053-0.904h-29.24c-1.689,0-3.053,0.303-4.09,0.904
			c-1.037,0.604-1.857,1.34-2.459,2.207c-0.604,0.869-1.014,1.822-1.23,2.859c-0.219,1.039-0.326,1.992-0.326,2.859
			c0,0.869,0.107,1.822,0.326,2.859c0.217,1.037,0.627,1.99,1.23,2.857c0.602,0.869,1.422,1.606,2.459,2.209
			c1.037,0.604,2.4,0.904,4.09,0.904h14.91c0.965,0,1.785,0.338,2.461,1.014c0.676,0.676,1.014,1.494,1.014,2.459
			c0,0.965-0.338,1.785-1.014,2.461c-0.676,0.676-1.496,1.014-2.461,1.014H40.905c-1.98-0.096-3.742-0.639-5.285-1.627
			c-1.543-0.988-2.857-2.232-3.943-3.729c-1.086-1.496-1.92-3.16-2.498-4.994c-0.578-1.832-0.867-3.642-0.867-5.428
			c0-1.832,0.301-3.678,0.904-5.537c0.601-1.857,1.482-3.547,2.641-5.066c1.158-1.519,2.559-2.762,4.199-3.727
			c1.641-0.965,3.498-1.449,5.572-1.449h33.004c1.976,0.098,3.738,0.643,5.283,1.631c1.543,0.988,2.857,2.23,3.943,3.726
			c1.086,1.496,1.918,3.16,2.496,4.994c0.578,1.834,0.869,3.643,0.869,5.428c0,1.834-0.303,3.68-0.904,5.537
			c-0.603,1.857-1.484,3.547-2.643,5.066c-1.158,1.52-2.557,2.762-4.197,3.727c-1.641,0.965-3.498,1.447-5.572,1.447h-1.52
			c-0.965,0-1.785-0.338-2.461-1.014s-1.014-1.496-1.014-2.461c0-0.965,0.338-1.783,1.014-2.459
			C70.603,33.668,71.423,33.33,72.388,33.33z"/>
		<path fill="#00768A" d="M60.736,27.395c0-1.254,0.434-2.316,1.303-3.185c0.867-0.867,1.93-1.303,3.184-1.303
			c1.254,0,2.316,0.436,3.186,1.303c0.867,0.869,1.303,1.932,1.303,3.185c0,1.254-0.436,2.317-1.303,3.184
			c-0.869,0.869-1.932,1.303-3.186,1.303c-1.254,0-2.316-0.434-3.184-1.303C61.169,29.711,60.736,28.649,60.736,27.395z"/>
		<path fill="#00768A" d="M60.736,46.241c0-1.254,0.434-2.316,1.303-3.185c0.867-0.867,1.93-1.303,3.184-1.303
			c1.254,0,2.316,0.436,3.186,1.303c0.867,0.869,1.303,1.932,1.303,3.185c0,1.254-0.436,2.317-1.303,3.185
			c-0.869,0.869-1.932,1.303-3.186,1.303c-1.254,0-2.316-0.434-3.184-1.303C61.169,48.559,60.736,47.495,60.736,46.241z"/>
		<path d="M110.156,27.359c0.217,1.037,0.627,1.99,1.23,2.857c0.602,0.869,1.422,1.606,2.459,2.209
			c1.037,0.604,2.4,0.904,4.09,0.904h28.807c1.641,0,2.99-0.301,4.053-0.904c1.061-0.603,1.893-1.34,2.496-2.209
			c0.604-0.867,1.014-1.82,1.23-2.857s0.326-1.99,0.326-2.859V11.638c0-0.965,0.338-1.785,1.014-2.461
			c0.676-0.676,1.496-1.014,2.461-1.014c0.965,0,1.783,0.338,2.459,1.014c0.676,0.676,1.014,1.496,1.014,2.461V24.5
			c0,1.834-0.303,3.68-0.904,5.537c-0.604,1.857-1.484,3.547-2.643,5.066c-1.158,1.52-2.557,2.762-4.197,3.727
			c-1.641,0.965-3.498,1.447-5.572,1.447h-33.002c-1.98-0.096-3.742-0.639-5.285-1.627c-1.543-0.988-2.857-2.232-3.943-3.729
			c-1.086-1.496-1.92-3.16-2.498-4.994c-0.578-1.832-0.867-3.642-0.867-5.428V11.638c0-0.965,0.336-1.785,1.012-2.461
			c0.676-0.676,1.496-1.014,2.461-1.014c0.965,0,1.785,0.338,2.461,1.014c0.676,0.676,1.014,1.496,1.014,2.461V24.5
			C109.83,25.369,109.937,26.322,110.156,27.359z"/>
		<path d="M181.797,38.975c-0.725,0.869-1.617,1.303-2.68,1.303c-0.965,0-1.785-0.338-2.461-1.014
			c-0.676-0.676-1.012-1.496-1.012-2.461c0-0.867,0.24-1.566,0.723-2.098l17.587-23.668c0.82-1.109,1.904-2.014,3.256-2.713
			c1.352-0.699,2.799-1.051,4.344-1.051c1.447,0,2.822,0.314,4.125,0.941c1.303,0.629,2.365,1.496,3.186,2.605l17.586,23.521
			c0.289,0.34,0.529,0.713,0.723,1.123c0.193,0.41,0.291,0.857,0.291,1.338c0,0.965-0.338,1.785-1.014,2.461
			c-0.676,0.676-1.496,1.014-2.461,1.014c-1.158,0-2.074-0.457-2.75-1.375l-16.863-22.51c-0.338-0.385-0.76-0.807-1.268-1.266
			c-0.508-0.457-1.025-0.688-1.555-0.688c-0.531,0-1.051,0.23-1.557,0.688c-0.508,0.459-0.904,0.881-1.193,1.266L181.797,38.975z"/>
		<path fill="#00768A" d="M197.066,32.461c0-1.254,0.434-2.317,1.303-3.186c0.867-0.867,1.93-1.303,3.186-1.303
			c1.254,0,2.314,0.435,3.184,1.303c0.867,0.869,1.303,1.932,1.303,3.186c0,1.254-0.436,2.316-1.303,3.183
			c-0.869,0.869-1.93,1.303-3.184,1.303c-1.256,0-2.318-0.434-3.186-1.303C197.499,34.777,197.066,33.715,197.066,32.461z"/>
		<path d="M323.698,39.811c-0.676,0.676-1.496,1.014-2.461,1.014c-0.965,0-1.785-0.338-2.461-1.014
			c-0.676-0.676-1.012-1.496-1.012-2.461V12.742c0-0.965,0.336-1.785,1.012-2.461c0.676-0.676,1.496-1.014,2.461-1.014
			c0.965,0,1.785,0.338,2.461,1.014c0.676,0.676,1.014,1.496,1.014,2.461V37.35C324.712,38.315,324.374,39.135,323.698,39.811z"/>
		<path d="M323.698,38.715c-0.676,0.676-1.496,1.014-2.461,1.014c-0.965,0-1.785-0.338-2.461-1.014
			c-0.676-0.676-1.012-1.496-1.012-2.461V11.647c0-0.965,0.336-1.785,1.012-2.461c0.676-0.676,1.496-1.014,2.461-1.014
			c0.965,0,1.785,0.338,2.461,1.014c0.676,0.676,1.014,1.496,1.014,2.461v24.607C324.712,37.219,324.374,38.039,323.698,38.715z"/>
		<path d="M399.264,24.5c0,1.834-0.303,3.68-0.904,5.537c-0.603,1.857-1.484,3.547-2.643,5.066c-1.158,1.52-2.557,2.762-4.197,3.727
			c-1.641,0.965-3.498,1.447-5.572,1.447h-33.002c-1.98-0.096-3.742-0.639-5.285-1.627c-1.543-0.988-2.857-2.232-3.943-3.729
			c-1.086-1.496-1.92-3.16-2.498-4.994c-0.578-1.832-0.867-3.642-0.867-5.428c0-1.832,0.301-3.678,0.904-5.537
			c0.602-1.857,1.482-3.547,2.641-5.066s2.559-2.762,4.199-3.727c1.641-0.965,3.498-1.449,5.572-1.449h33.004
			c1.977,0.098,3.738,0.643,5.283,1.631c1.543,0.988,2.857,2.23,3.943,3.726c1.086,1.496,1.918,3.16,2.496,4.994
			C398.973,20.906,399.264,22.715,399.264,24.5z M388.481,32.426c1.061-0.603,1.893-1.34,2.496-2.209
			c0.604-0.867,1.014-1.82,1.23-2.857s0.326-1.99,0.326-2.859c0-0.867-0.109-1.82-0.326-2.859c-0.217-1.037-0.627-1.99-1.23-2.859
			c-0.603-0.867-1.435-1.604-2.496-2.207c-1.062-0.601-2.412-0.904-4.053-0.904h-29.24c-1.689,0-3.053,0.303-4.09,0.904
			c-1.037,0.604-1.857,1.34-2.459,2.207c-0.604,0.869-1.014,1.822-1.23,2.859c-0.219,1.039-0.326,1.992-0.326,2.859
			c0,0.869,0.107,1.822,0.326,2.859c0.217,1.037,0.627,1.99,1.23,2.857c0.602,0.869,1.422,1.606,2.459,2.209
			c1.037,0.604,2.4,0.904,4.09,0.904h29.24C386.069,33.33,387.419,33.029,388.481,32.426z"/>
		<path d="M465.223,9.177c0.676-0.676,1.496-1.014,2.461-1.014c0.965,0,1.783,0.338,2.459,1.014
			c0.676,0.676,1.014,1.496,1.014,2.461v22.193c0,1.98-0.664,3.645-1.99,4.996c-1.328,1.351-2.981,2.025-4.957,2.025
			c-0.676,0-1.34-0.096-1.99-0.289c-0.652-0.193-1.242-0.459-1.773-0.797l-33.148-21.398c-0.918-0.529-1.678-0.951-2.279-1.266
			c-0.603-0.313-1.098-0.471-1.484-0.471c-0.723,0-1.182,0.459-1.375,1.375c-0.193,0.918-0.289,2.244-0.289,3.98v15.391
			c0,0.965-0.338,1.785-1.014,2.461c-0.676,0.676-1.496,1.014-2.461,1.014c-0.965,0-1.785-0.338-2.461-1.014
			c-0.676-0.676-1.012-1.496-1.012-2.461V15.185c0-1.977,0.662-3.643,1.99-4.994c1.326-1.351,2.979-2.027,4.957-2.027
			c0.676,0,1.338,0.098,1.99,0.291c0.65,0.193,1.242,0.459,1.773,0.795l33.148,21.398c0.916,0.531,1.676,0.955,2.279,1.268
			c0.602,0.313,1.098,0.469,1.484,0.469c0.723,0,1.18-0.457,1.373-1.375c0.193-0.916,0.291-2.242,0.291-3.981V11.638
			C464.21,10.673,464.548,9.853,465.223,9.177z"/>
		<g>
			<path d="M287.268,33.33c1.641,0,2.99-0.301,4.053-0.904c1.06-0.603,1.892-1.34,2.496-2.209c0.604-0.867,1.014-1.82,1.23-2.857
				s0.326-1.99,0.326-2.859c0-0.867-0.109-1.82-0.326-2.859c-0.217-1.037-0.627-1.99-1.23-2.859
				c-0.604-0.867-1.436-1.604-2.496-2.207c-1.062-0.601-2.412-0.904-4.053-0.904h-40.675c-0.965,0-1.785-0.338-2.461-1.014
				c-0.676-0.676-1.012-1.496-1.012-2.461c0-0.965,0.336-1.785,1.012-2.461c0.676-0.676,1.496-1.014,2.461-1.014h42.195
				c2.074,0,3.932,0.484,5.572,1.449c1.641,0.965,3.039,2.207,4.197,3.727s2.039,3.209,2.643,5.066
				c0.602,1.859,0.904,3.705,0.904,5.537c0,1.785-0.291,3.596-0.869,5.428c-0.578,1.834-1.41,3.498-2.496,4.994
				c-1.086,1.496-2.4,2.74-3.943,3.729c-1.545,0.988-3.307,1.531-5.283,1.627h-42.919c-0.965,0-1.785-0.338-2.461-1.014
				s-1.012-1.496-1.012-2.461V24.5c0-0.965,0.336-1.785,1.012-2.461c0.676-0.676,1.496-1.014,2.461-1.014
				c0.965,0,1.785,0.338,2.461,1.014c0.676,0.676,1.014,1.496,1.014,2.461v8.83H287.268z"/>
		</g>
	</g>
</g>
</svg>
